# xmcd CD database file
# Copyright (C) 1997 Ti Kan
# 
# Track frame offsets:
#     150
#     14647
#     26765
#     41765
#     53940
#     65692
#     80462
#     94535
#     107957
#     122050
#     136830
#     149670
#     164367
#     178667
#     187995
#     199325
#     214497
#     226792
#     241380
#     255272
# 
# Disc length: 3557 seconds
# 
# Revision: 1
# Processed by: cddbd v1.4b41PL1 Copyright (c) Steve Scherf et al.
# Submitted via: DiscPlay 4.0.3
# 
DISCID=250de314
DTITLE=Josephine Baker - Josephine Baker - (1931-1968)
DYEAR=1900
DGENRE=
TTITLE0=J'ai Deux Amours
TTITLE1=La Petite Tonkinoise
TTITLE2=Sans Amour
TTITLE3=Ram Pam Pam
TTITLE4=Si J' tais Blanche
TTITLE5=Ha ti
TTITLE6=Vous Faites Partie De Moi
TTITLE7=Sur Deux Notes
TTITLE8=Mon Coeur Est Un Oiseau Des  les
TTITLE9=De Temps En Temps
TTITLE10=London Town
TTITLE11=Zoubida
TTITLE12=L'Amour Est Un Jeu
TTITLE13=Brazil
TTITLE14=Paris Ch ri
TTITLE15=Besame Mucho
TTITLE16=C'est  a Le Vrai Bonheur
TTITLE17=C'est Lui
TTITLE18=Piel Canela
TTITLE19=La Vie En Rose
EXTD=
EXTT0=
EXTT1=
EXTT2=
EXTT3=
EXTT4=
EXTT5=
EXTT6=
EXTT7=
EXTT8=
EXTT9=
EXTT10=
EXTT11=
EXTT12=
EXTT13=
EXTT14=
EXTT15=
EXTT16=
EXTT17=
EXTT18=
EXTT19=
PLAYORDER=
